<svg width="36" height="45" viewBox="0 0 36 45" fill="none" xmlns="http://www.w3.org/2000/svg">
<path d="M24.0274 3.09293C24.631 2.52552 24.6603 1.57622 24.0929 0.972619C23.5255 0.369014 22.5762 0.339672 21.9726 0.907081L24.0274 3.09293ZM2 21.7407L0.972611 20.6478C0.678058 20.9247 0.507739 21.3088 0.500254 21.713C0.492768 22.1172 0.64875 22.5073 0.932849 22.7949L2 21.7407ZM21.9328 44.0541C22.515 44.6435 23.4648 44.6493 24.0541 44.0671C24.6435 43.485 24.6493 42.5352 24.0671 41.9459L21.9328 44.0541ZM35.0274 3.09293C35.631 2.52552 35.6603 1.57622 35.0929 0.97262C34.5255 0.369016 33.5762 0.339674 32.9726 0.907083L35.0274 3.09293ZM13 21.7407L11.9726 20.6478C11.6781 20.9247 11.5077 21.3088 11.5003 21.713C11.4928 22.1172 11.6488 22.5073 11.9329 22.7949L13 21.7407ZM32.9329 44.0541C33.515 44.6435 34.4648 44.6493 35.0541 44.0671C35.6435 43.485 35.6493 42.5352 35.0671 41.9459L32.9329 44.0541ZM21.9726 0.907081L0.972611 20.6478L3.02738 22.8337L24.0274 3.09293L21.9726 0.907081ZM0.932849 22.7949L21.9328 44.0541L24.0671 41.9459L3.06714 20.6866L0.932849 22.7949ZM32.9726 0.907083L11.9726 20.6478L14.0274 22.8337L35.0274 3.09293L32.9726 0.907083ZM11.9329 22.7949L32.9329 44.0541L35.0671 41.9459L14.0671 20.6866L11.9329 22.7949Z" fill="#AAAAAA"/>
</svg>
